<?xml version="1.0" standalone="no"?>
<!DOCTYPE svg PUBLIC "-//W3C//DTD SVG 20010904//EN"
 "http://www.w3.org/TR/2001/REC-SVG-20010904/DTD/svg10.dtd">
<svg version="1.0" xmlns="http://www.w3.org/2000/svg"
 width="600.000000pt" height="480.000000pt" viewBox="0 0 600.000000 480.000000"
 preserveAspectRatio="xMidYMid meet">
<metadata>
Created by potrace 1.15, written by Peter Selinger 2001-2017
</metadata>
<g transform="translate(0.000000,480.000000) scale(0.100000,-0.100000)"
fill="#000000" stroke="none">
<path d="M1370 3170 c-11 -7 -13 -45 -11 -201 l3 -192 -69 5 c-64 6 -66 5 -26
-6 23 -6 44 -13 47 -17 5 -5 -121 -83 -219 -134 -105 -56 -122 -68 -139 -96
-10 -17 -15 -38 -11 -47 3 -9 93 -165 198 -346 l192 -328 48 5 c37 5 47 3 47
-8 0 -11 -14 -15 -56 -15 -34 0 -53 4 -49 10 4 6 -7 10 -24 10 -22 0 -31 -5
-31 -16 0 -12 -7 -14 -29 -9 -18 4 -38 1 -51 -7 -17 -9 -24 -10 -27 -2 -5 14
-43 6 -43 -8 0 -6 -13 -7 -31 -3 -17 4 -29 3 -26 -1 3 -5 -9 -9 -27 -10 -17 0
-47 -8 -65 -17 -19 -9 -40 -17 -48 -17 -17 0 -143 -57 -143 -64 0 -3 321 -6
713 -5 705 1 712 1 672 19 -22 11 -53 25 -70 31 -16 7 -32 13 -35 14 -3 1 -20
6 -38 10 -18 4 -35 11 -38 16 -2 4 -11 6 -19 2 -8 -3 -15 0 -15 5 0 6 -14 10
-32 10 -18 -1 -34 4 -36 11 -2 7 -15 9 -37 5 -20 -3 -35 -1 -40 5 -4 7 -20 9
-42 5 -24 -5 -34 -3 -29 4 4 7 -11 9 -50 5 -55 -6 -56 -6 -45 15 6 12 59 49
116 83 110 64 129 87 107 132 -5 12 -104 183 -220 379 l-209 356 56 15 56 15
-72 -6 -73 -5 0 166 c0 100 4 168 10 172 16 10 11 44 -8 54 -10 5 -24 6 -32 1z"/>
<path d="M2068 2199 c-61 -18 -125 -82 -144 -144 -18 -64 -12 -112 23 -173 25
-45 104 -104 111 -83 2 6 10 11 18 11 8 0 11 -6 8 -15 -4 -10 0 -15 14 -15 11
0 25 7 32 15 7 8 25 15 41 15 26 0 29 4 29 30 0 17 5 30 10 30 6 0 10 -16 10
-35 0 -22 5 -35 13 -35 14 0 97 67 97 78 0 4 -17 16 -39 28 l-38 21 -32 -29
c-58 -52 -163 -32 -196 38 -30 64 -9 139 47 170 51 29 144 11 171 -33 7 -11
16 -9 45 8 20 13 39 24 41 26 9 7 -45 56 -83 75 -46 24 -127 31 -178 17z"/>
<path d="M2410 1990 l0 -210 50 0 50 0 0 55 0 55 39 0 c38 0 42 -3 73 -55 l33
-55 58 0 c64 0 64 -4 10 71 -39 54 -40 60 -12 77 11 7 27 28 35 47 31 75 8
160 -55 202 -31 21 -46 23 -157 23 l-124 0 0 -210z m234 105 c23 -23 28 -52
15 -77 -17 -33 -28 -38 -91 -38 l-58 0 0 65 0 65 59 0 c40 0 65 -5 75 -15z"/>
<path d="M2850 1990 l0 -210 160 0 160 0 0 45 0 45 -110 0 -110 0 0 40 0 40
90 0 90 0 0 40 0 40 -90 0 -90 0 0 40 0 40 110 0 110 0 0 45 0 45 -160 0 -160
0 0 -210z"/>
<path d="M3260 1991 l0 -211 98 0 c115 1 174 12 224 46 116 76 109 271 -12
342 -41 25 -55 27 -177 30 l-133 4 0 -211z m276 85 c28 -28 34 -42 34 -75 0
-89 -50 -131 -155 -131 l-55 0 0 120 0 120 71 0 c67 0 73 -2 105 -34z"/>
<path d="M3740 1990 c0 -207 0 -210 21 -210 19 0 21 5 17 40 l-4 40 42 0 c48
0 69 -18 62 -55 -4 -21 -1 -25 19 -25 13 0 31 7 39 15 17 16 64 21 64 6 0 -5
-12 -12 -27 -14 -16 -2 -1 -4 32 -5 40 0 53 2 40 8 -18 7 -19 8 -2 15 10 4 17
18 17 36 l0 29 -110 0 -110 0 0 165 0 165 -50 0 -50 0 0 -210z"/>
<path d="M4140 1990 c0 -184 2 -210 16 -210 8 0 13 4 10 9 -7 11 17 21 50 21
l24 0 0 195 0 195 -50 0 -50 0 0 -210z"/>
<path d="M4327 2183 c4 -10 39 -90 79 -178 49 -110 76 -159 85 -156 8 3 33 6
57 9 32 3 42 1 42 -10 0 -10 -9 -13 -30 -10 -35 5 -60 -12 -60 -40 0 -17 6
-19 56 -16 l56 3 84 190 c46 105 87 198 90 208 5 15 -2 17 -44 17 l-50 0 -42
-97 c-24 -54 -53 -122 -66 -150 -13 -29 -25 -53 -27 -53 -2 0 -32 67 -68 150
l-64 150 -52 0 c-46 0 -52 -2 -46 -17z"/>
<path d="M4870 2005 c0 -167 2 -195 15 -195 8 0 15 -7 15 -15 0 -21 49 -19 66
3 13 16 15 16 28 0 16 -22 55 -23 62 -3 4 8 12 15 20 15 8 0 11 -6 8 -15 -4
-10 0 -15 14 -15 11 0 25 7 32 15 7 8 23 15 36 15 20 0 24 5 24 30 l0 30 -110
0 -110 0 0 40 0 40 90 0 90 0 0 40 0 40 -90 0 -90 0 0 40 0 40 110 0 110 0 0
45 0 45 -160 0 -160 0 0 -195z"/>
</g>
</svg>
